<svg id="Layer_1" data-name="Layer 1" xmlns="http://www.w3.org/2000/svg" viewBox="0 0 128.82 57.51"><defs><style>.cls-1{fill:#26171b;}.cls-2{fill:#fff;}.cls-3{fill:#fcbb10;}</style></defs><title>Artboard 4</title><rect class="cls-1" x="6.23" y="21.45" width="2.29" height="2.3"/><path class="cls-1" d="M18.94,23.75H10.86v-2.3h6.92A5.45,5.45,0,0,0,18.94,23.75Z"/><path class="cls-1" d="M26.14,21.45a3.36,3.36,0,0,1-6.34,0Z"/><rect class="cls-1" x="27.44" y="21.45" width="2.3" height="2.3"/><rect class="cls-1" x="31.95" y="21.45" width="2.3" height="2.3"/><rect class="cls-1" x="37.85" y="21.45" width="2.3" height="2.3"/><rect class="cls-1" x="44.15" y="21.45" width="84.67" height="2.3"/><rect class="cls-1" x="6.23" y="45.02" width="2.29" height="2.3"/><rect class="cls-1" x="10.86" y="45.02" width="24.71" height="2.3"/><rect class="cls-1" x="37.85" y="45.02" width="2.3" height="2.3"/><rect class="cls-1" x="44.15" y="45.02" width="84.67" height="2.3"/><path class="cls-2" d="M33.85,47.32v3.89H12.52V47.32H10.86v5.87H35.57V47.32Zm-3-15.67a5.4,5.4,0,0,1-5.34-5.45V25a5.22,5.22,0,0,1-2.54.66,5.28,5.28,0,0,1-4-1.88H16.51v.09A7.37,7.37,0,0,0,23,27.7c.21,0,.41,0,.62,0a7.43,7.43,0,0,0,7.26,6,7.34,7.34,0,0,0,3-.64V51.21H12.52V23.75H10.86V53.19H35.57V28.73A5.3,5.3,0,0,1,30.85,31.65Zm0,0a5.4,5.4,0,0,1-5.34-5.45V25a5.22,5.22,0,0,1-2.54.66,5.28,5.28,0,0,1-4-1.88H16.51v.09A7.37,7.37,0,0,0,23,27.7c.21,0,.41,0,.62,0a7.43,7.43,0,0,0,7.26,6,7.34,7.34,0,0,0,3-.64V51.21H12.52V23.75H10.86V53.19H35.57V28.73A5.3,5.3,0,0,1,30.85,31.65Zm0,0a5.4,5.4,0,0,1-5.34-5.45V25a5.22,5.22,0,0,1-2.54.66,5.28,5.28,0,0,1-4-1.88,5.45,5.45,0,0,1-1.16-2.3,5.26,5.26,0,0,1-.15-1.27V18.61H16.51v-.22a1.15,1.15,0,1,0-2.29,0v.31H10.86V53.19H35.57V28.73A5.3,5.3,0,0,1,30.85,31.65Zm3,19.56H12.52V20.68h3.06c0,.26.05.52.09.77a7.55,7.55,0,0,0,.79,2.3.41.41,0,0,0,.05.09A7.37,7.37,0,0,0,23,27.7c.21,0,.41,0,.62,0a7.43,7.43,0,0,0,7.26,6,7.34,7.34,0,0,0,3-.64Zm-3-19.56a5.4,5.4,0,0,1-5.34-5.45V25a5.22,5.22,0,0,1-2.54.66,5.28,5.28,0,0,1-4-1.88,5.45,5.45,0,0,1-1.16-2.3,5.26,5.26,0,0,1-.15-1.27V18.61H16.51v-.22a1.15,1.15,0,1,0-2.29,0v.31H10.86V53.19H35.57V28.73A5.3,5.3,0,0,1,30.85,31.65Zm3,19.56H12.52V20.68h3.06c0,.26.05.52.09.77a7.55,7.55,0,0,0,.79,2.3.41.41,0,0,0,.05.09A7.37,7.37,0,0,0,23,27.7c.21,0,.41,0,.62,0a7.43,7.43,0,0,0,7.26,6,7.34,7.34,0,0,0,3-.64Zm-3-19.56a5.4,5.4,0,0,1-5.34-5.45V25a5.22,5.22,0,0,1-2.54.66,5.28,5.28,0,0,1-4-1.88,5.45,5.45,0,0,1-1.16-2.3,5.26,5.26,0,0,1-.15-1.27V18.61H16.51v-.22a1.15,1.15,0,1,0-2.29,0v.31H10.86V53.19H35.57V28.73A5.3,5.3,0,0,1,30.85,31.65Zm3,19.56H12.52V20.68h3.06c0,.26.05.52.09.77a7.55,7.55,0,0,0,.79,2.3.41.41,0,0,0,.05.09A7.37,7.37,0,0,0,23,27.7c.21,0,.41,0,.62,0a7.43,7.43,0,0,0,7.26,6,7.34,7.34,0,0,0,3-.64ZM24.3,14.61V18.7h2.07v-2h1.07v4.77h2.07V14.61Zm6.55,17a5.4,5.4,0,0,1-5.34-5.45V25a5.22,5.22,0,0,1-2.54.66,5.28,5.28,0,0,1-4-1.88,5.45,5.45,0,0,1-1.16-2.3,5.26,5.26,0,0,1-.15-1.27V18.61H16.51v-.22a1.15,1.15,0,1,0-2.29,0v.31H10.86V53.19H35.57V28.73A5.3,5.3,0,0,1,30.85,31.65Zm3,19.56H12.52V20.68h3.06c0,.26.05.52.09.77a7.55,7.55,0,0,0,.79,2.3.41.41,0,0,0,.05.09A7.37,7.37,0,0,0,23,27.7c.21,0,.41,0,.62,0a7.43,7.43,0,0,0,7.26,6,7.34,7.34,0,0,0,3-.64Zm-3-19.56a5.4,5.4,0,0,1-5.34-5.45V25a5.22,5.22,0,0,1-2.54.66,5.28,5.28,0,0,1-4-1.88,5.45,5.45,0,0,1-1.16-2.3,5.26,5.26,0,0,1-.15-1.27V18.61H16.51v-.22a1.15,1.15,0,1,0-2.29,0v.31H10.86V53.19H35.57V28.73A5.3,5.3,0,0,1,30.85,31.65Zm3,19.56H12.52V20.68h3.06c0,.26.05.52.09.77a7.55,7.55,0,0,0,.79,2.3.41.41,0,0,0,.05.09A7.37,7.37,0,0,0,23,27.7c.21,0,.41,0,.62,0a7.43,7.43,0,0,0,7.26,6,7.34,7.34,0,0,0,3-.64ZM26.37,16.68h1.07v4.77h2.07V14.61H24.3V18.7h2.07ZM5.71,45c-2.09,0-3.42-1-3.42-1.63v-18c0-.67,1.33-1.63,3.42-1.63h.52V45ZM30.85,31.65a5.4,5.4,0,0,1-5.34-5.45V25a5.22,5.22,0,0,1-2.54.66,5.28,5.28,0,0,1-4-1.88,5.45,5.45,0,0,1-1.16-2.3,5.26,5.26,0,0,1-.15-1.27V18.61H16.51v-.22a1.15,1.15,0,1,0-2.29,0v.31H10.86V53.19H35.57V28.73A5.3,5.3,0,0,1,30.85,31.65Zm3,19.56H12.52V20.68h3.06c0,.26.05.52.09.77a7.55,7.55,0,0,0,.79,2.3.41.41,0,0,0,.05.09A7.37,7.37,0,0,0,23,27.7c.21,0,.41,0,.62,0a7.43,7.43,0,0,0,7.26,6,7.34,7.34,0,0,0,3-.64ZM24.3,14.61V18.7h2.07v-2h1.07v4.77h2.07V14.61Zm6.55,17a5.4,5.4,0,0,1-5.34-5.45V25a5.22,5.22,0,0,1-2.54.66,5.28,5.28,0,0,1-4-1.88,5.45,5.45,0,0,1-1.16-2.3,5.26,5.26,0,0,1-.15-1.27V18.61H16.51v-.22a1.15,1.15,0,1,0-2.29,0v.31H10.86V53.19H35.57V28.73A5.3,5.3,0,0,1,30.85,31.65Zm3,19.56H12.52V20.68h3.06c0,.26.05.52.09.77a7.55,7.55,0,0,0,.79,2.3.41.41,0,0,0,.05.09A7.37,7.37,0,0,0,23,27.7c.21,0,.41,0,.62,0a7.43,7.43,0,0,0,7.26,6,7.34,7.34,0,0,0,3-.64Zm-3-19.56a5.4,5.4,0,0,1-5.34-5.45V25a5.22,5.22,0,0,1-2.54.66,5.28,5.28,0,0,1-4-1.88,5.45,5.45,0,0,1-1.16-2.3,5.26,5.26,0,0,1-.15-1.27V18.61H16.51v-.22a1.15,1.15,0,1,0-2.29,0v.31H10.86V53.19H35.57V28.73A5.3,5.3,0,0,1,30.85,31.65Zm3,19.56H12.52V20.68h3.06c0,.26.05.52.09.77a7.55,7.55,0,0,0,.79,2.3.41.41,0,0,0,.05.09A7.37,7.37,0,0,0,23,27.7c.21,0,.41,0,.62,0a7.43,7.43,0,0,0,7.26,6,7.34,7.34,0,0,0,3-.64ZM27.44,18.7v2.75h2.07V18.7Zm3.41,13a5.4,5.4,0,0,1-5.34-5.45V25a5.22,5.22,0,0,1-2.54.66,5.28,5.28,0,0,1-4-1.88,5.45,5.45,0,0,1-1.16-2.3,5.26,5.26,0,0,1-.15-1.27V18.61H16.51v-.22a1.15,1.15,0,1,0-2.29,0v.31H10.86V53.19H35.57V28.73A5.3,5.3,0,0,1,30.85,31.65Zm3,19.56H12.52V20.68h3.06c0,.26.05.52.09.77a7.55,7.55,0,0,0,.79,2.3.41.41,0,0,0,.05.09A7.37,7.37,0,0,0,23,27.7c.21,0,.41,0,.62,0a7.43,7.43,0,0,0,7.26,6,7.34,7.34,0,0,0,3-.64Zm-3-19.56a5.4,5.4,0,0,1-5.34-5.45V25a5.22,5.22,0,0,1-2.54.66,5.28,5.28,0,0,1-4-1.88,5.45,5.45,0,0,1-1.16-2.3,5.26,5.26,0,0,1-.15-1.27V18.61H16.51v-.22a1.15,1.15,0,1,0-2.29,0v.31H10.86V53.19H35.57V28.73A5.3,5.3,0,0,1,30.85,31.65Zm3,19.56H12.52V20.68h3.06c0,.26.05.52.09.77a7.55,7.55,0,0,0,.79,2.3.41.41,0,0,0,.05.09A7.37,7.37,0,0,0,23,27.7c.21,0,.41,0,.62,0a7.43,7.43,0,0,0,7.26,6,7.34,7.34,0,0,0,3-.64Zm-3-19.56a5.4,5.4,0,0,1-5.34-5.45V25a5.22,5.22,0,0,1-2.54.66,5.28,5.28,0,0,1-4-1.88H16.51v.09A7.37,7.37,0,0,0,23,27.7c.21,0,.41,0,.62,0a7.43,7.43,0,0,0,7.26,6,7.34,7.34,0,0,0,3-.64V51.21H12.52V23.75H10.86V53.19H35.57V28.73A5.3,5.3,0,0,1,30.85,31.65Zm0,0a5.4,5.4,0,0,1-5.34-5.45V25a5.22,5.22,0,0,1-2.54.66,5.28,5.28,0,0,1-4-1.88H16.51v.09A7.37,7.37,0,0,0,23,27.7c.21,0,.41,0,.62,0a7.43,7.43,0,0,0,7.26,6,7.34,7.34,0,0,0,3-.64V51.21H12.52V23.75H10.86V53.19H35.57V28.73A5.3,5.3,0,0,1,30.85,31.65Zm0,0a5.4,5.4,0,0,1-5.34-5.45V25a5.22,5.22,0,0,1-2.54.66,5.28,5.28,0,0,1-4-1.88H16.51v.09A7.37,7.37,0,0,0,23,27.7c.21,0,.41,0,.62,0a7.43,7.43,0,0,0,7.26,6,7.34,7.34,0,0,0,3-.64V51.21H12.52V47.32H10.86v5.87H35.57V28.73A5.3,5.3,0,0,1,30.85,31.65Zm3,15.67v3.89H12.52V47.32H10.86v5.87H35.57V47.32Zm6.3-33.73a6.92,6.92,0,0,0-1.6-4.46A6,6,0,0,0,34.77,7a8.69,8.69,0,0,0-8.23-7,8.23,8.23,0,0,0-6.41,3.18A6.64,6.64,0,0,0,18.65,3a7.41,7.41,0,0,0-6.83,5,5.9,5.9,0,0,0-5.6,6.09,2.81,2.81,0,0,0,0,.29v7H5.71C2.51,21.45,0,23.17,0,25.38v18c0,2.2,2.51,3.93,5.71,3.93h.52v6.3a3.24,3.24,0,0,0,0,.44,3.77,3.77,0,0,0,3.66,3.49H36.47A3.76,3.76,0,0,0,40.12,54a3.25,3.25,0,0,0,0-.44V14.38h0A7.09,7.09,0,0,0,40.15,13.59ZM11.88,10.34a2.71,2.71,0,0,1,.56.05l1.08.21.25-1.08a5.18,5.18,0,0,1,4.88-4.21,4.56,4.56,0,0,1,1.55.27l.85.31.5-.76a6,6,0,0,1,5-2.83,6.47,6.47,0,0,1,6.12,6l.13,1.06,1.07-.05H34a4.13,4.13,0,0,1,3.85,4.34,4.15,4.15,0,0,1-.07.79H32V26.2a1.11,1.11,0,1,1-2.21,0V14.38H24.07v5.8a1.11,1.11,0,1,1-2.21,0v-5.8H8.52v-.25A3.59,3.59,0,0,1,11.88,10.34Zm26,43.24a1.34,1.34,0,0,1,0,.2,1.49,1.49,0,0,1-1.37,1.43H9.91a1.47,1.47,0,0,1-1.37-1.43,1.5,1.5,0,0,1,0-.2V16.68H19.57v3.5a3.54,3.54,0,0,0,.23,1.27,3.36,3.36,0,0,0,6.34,0,3.54,3.54,0,0,0,.23-1.27v-3.5h1.07V26.2a3.41,3.41,0,1,0,6.81,0V16.68h3.6Z"/><path class="cls-3" d="M26.37,18.7v1.48a3.54,3.54,0,0,1-.23,1.27,3.36,3.36,0,0,1-6.34,0,3.54,3.54,0,0,1-.23-1.27V18.7h2.29v1.48a1.11,1.11,0,1,0,2.21,0V18.7Z"/><path class="cls-3" d="M34.25,18.7v7.5a3.41,3.41,0,1,1-6.81,0V18.7h2.3v7.5a1.11,1.11,0,1,0,2.21,0V18.7Z"/><path class="cls-3" d="M35.57,28.73V53.19H10.86V18.7h6.77v1.48a5.26,5.26,0,0,0,.15,1.27,5.45,5.45,0,0,0,1.16,2.3,5.28,5.28,0,0,0,4,1.88A5.22,5.22,0,0,0,25.51,25V26.2a5.4,5.4,0,0,0,5.34,5.45A5.3,5.3,0,0,0,35.57,28.73Z"/><path class="cls-2" d="M15.37,17.24a1.15,1.15,0,0,0-1.15,1.15v.22h2.29v-.22A1.15,1.15,0,0,0,15.37,17.24Zm24.78-3.65a6.92,6.92,0,0,0-1.6-4.46A6,6,0,0,0,34.77,7a8.69,8.69,0,0,0-8.23-7,8.23,8.23,0,0,0-6.41,3.18A6.64,6.64,0,0,0,18.65,3a7.41,7.41,0,0,0-6.83,5,5.9,5.9,0,0,0-5.6,6.09,2.81,2.81,0,0,0,0,.29v4.19H8.52V16.68H19.57v3.5a3.54,3.54,0,0,0,.23,1.27,3.36,3.36,0,0,0,6.34,0,3.54,3.54,0,0,0,.23-1.27v-3.5h1.07V26.2a3.41,3.41,0,1,0,6.81,0V16.68h3.6v1.93h2.3V14.38h0A7.09,7.09,0,0,0,40.15,13.59Zm-2.36.79H32V26.2a1.11,1.11,0,1,1-2.21,0V14.38H24.07v5.8a1.11,1.11,0,1,1-2.21,0v-5.8H8.52v-.25a3.59,3.59,0,0,1,3.36-3.79,2.71,2.71,0,0,1,.56.05l1.08.21.25-1.08a5.18,5.18,0,0,1,4.88-4.21,4.56,4.56,0,0,1,1.55.27l.85.31.5-.76a6,6,0,0,1,5-2.83,6.47,6.47,0,0,1,6.12,6l.13,1.06,1.07-.05H34a4.13,4.13,0,0,1,3.85,4.34A4.15,4.15,0,0,1,37.79,14.38Z"/><path class="cls-2" d="M34,9h-.17l-.85,0-.1-.85a6.69,6.69,0,0,0-6.35-6.15A6.24,6.24,0,0,0,21.36,5l-.4.61-.68-.25a4.79,4.79,0,0,0-1.63-.29,5.4,5.4,0,0,0-5.1,4.39l-.2.86-.87-.17a4.16,4.16,0,0,0-.6-.05,3.83,3.83,0,0,0-3.59,4c0,.16,0,.32,0,.48H21.63v5.57a1.46,1.46,0,0,0,.71,1.27,1.13,1.13,0,0,0,.63.18,1.19,1.19,0,0,0,.64-.18,1.46,1.46,0,0,0,.69-1.27V14.61h5.21V26.2a1.34,1.34,0,1,0,2.67,0V14.61H38a4.9,4.9,0,0,0,.11-1A4.35,4.35,0,0,0,34,9Zm3.78,5.36H32V26.2a1.11,1.11,0,1,1-2.21,0V14.38H24.07v5.8a1.11,1.11,0,1,1-2.21,0v-5.8H8.52v-.25a3.59,3.59,0,0,1,3.36-3.79,2.71,2.71,0,0,1,.56.05l1.08.21.25-1.08a5.18,5.18,0,0,1,4.88-4.21,4.56,4.56,0,0,1,1.55.27l.85.31.5-.76a6,6,0,0,1,5-2.83,6.47,6.47,0,0,1,6.12,6l.13,1.06,1.07-.05H34a4.13,4.13,0,0,1,3.85,4.34A4.15,4.15,0,0,1,37.79,14.38Z"/><path class="cls-1" d="M16.51,18.39V38.75a1.15,1.15,0,1,1-2.29,0V18.39a1.15,1.15,0,1,1,2.29,0Z"/><path class="cls-1" d="M26.4,50.24a1.15,1.15,0,0,0,1.15-1.15V43.72a1.15,1.15,0,1,0-2.29,0v5.37A1.15,1.15,0,0,0,26.4,50.24Z"/><path class="cls-1" d="M32,23.75V26.2a1.11,1.11,0,1,1-2.21,0V21.45h-.23V18.7H27.44v7.5a3.41,3.41,0,1,0,6.81,0V23.75Zm-7.88-9.37V18.7h2.3v-2h1.07v2h2.07v2.75h.23V14.38Zm0,0V18.7h2.3v-2h1.07v2h2.07v2.75h.23V14.38Zm0,0V18.7h2.3v-2h1.07v2h2.07v2.75h.23V14.38Zm0,0V18.7h2.3v-2h1.07v2h2.07v2.75h.23V14.38Zm.23.23V18.7h2.07v-2h1.07v4.77h2.07V14.61Zm0,0V18.7h2.07v-2h1.07v4.77h2.07V14.61ZM5.71,45c-2.09,0-3.42-1-3.42-1.63v-18c0-.67,1.33-1.63,3.42-1.63h.52V45ZM24.3,14.61V18.7h2.07v-2h1.07v4.77h2.07V14.61Zm3.14,4.09v2.75h2.07V18.7Zm-3.37-4.32V18.7h2.3v-2h1.07v2h2.07v2.75h.23V14.38Zm0,0V18.7h2.3v-2h1.07v2h2.07v2.75h.23V14.38Zm0,0V18.7h2.3v-2h1.07v2h2.07v2.75h.23V14.38Zm0,0V18.7h2.3v-2h1.07v2h2.07v2.75h.23V14.38ZM32,23.75V26.2a1.11,1.11,0,1,1-2.21,0V21.45h-.23V18.7H27.44v7.5a3.41,3.41,0,1,0,6.81,0V23.75Zm8.2-10.16a6.92,6.92,0,0,0-1.6-4.46A6,6,0,0,0,34.77,7a8.69,8.69,0,0,0-8.23-7,8.23,8.23,0,0,0-6.41,3.18A6.64,6.64,0,0,0,18.65,3a7.41,7.41,0,0,0-6.83,5,5.9,5.9,0,0,0-5.6,6.09,2.81,2.81,0,0,0,0,.29v7H5.71C2.51,21.45,0,23.17,0,25.38v18c0,2.2,2.51,3.93,5.71,3.93h.52v6.3a3.24,3.24,0,0,0,0,.44,3.77,3.77,0,0,0,3.66,3.49H36.47A3.76,3.76,0,0,0,40.12,54a3.25,3.25,0,0,0,0-.44V14.38h0A7.09,7.09,0,0,0,40.15,13.59ZM11.88,10.34a2.71,2.71,0,0,1,.56.05l1.08.21.25-1.08a5.18,5.18,0,0,1,4.88-4.21,4.56,4.56,0,0,1,1.55.27l.85.31.5-.76a6,6,0,0,1,5-2.83,6.47,6.47,0,0,1,6.12,6l.13,1.06,1.07-.05H34a4.13,4.13,0,0,1,3.85,4.34,4.15,4.15,0,0,1-.07.79H32V26.2a1.11,1.11,0,1,1-2.21,0V14.38H24.07v5.8a1.11,1.11,0,1,1-2.21,0v-5.8H8.52v-.25A3.59,3.59,0,0,1,11.88,10.34Zm26,43.24a1.34,1.34,0,0,1,0,.2,1.49,1.49,0,0,1-1.37,1.43H9.91a1.47,1.47,0,0,1-1.37-1.43,1.5,1.5,0,0,1,0-.2V16.68H19.57v3.5a3.54,3.54,0,0,0,.23,1.27,3.36,3.36,0,0,0,6.34,0,3.54,3.54,0,0,0,.23-1.27v-3.5h1.07V26.2a3.41,3.41,0,1,0,6.81,0V16.68h3.6Z"/><path class="cls-1" d="M55.41,25.87c-3.89,0-6.29,2.3-6.29,6.07V36.8c0,3.7,2.4,6,6.29,6s6.28-2.33,6.28-6V31.94C61.69,28.17,59.29,25.87,55.41,25.87ZM59.69,36.8c0,2.6-1.55,4.16-4.28,4.16S51.1,39.4,51.1,36.8V31.94c0-2.69,1.57-4.25,4.31-4.25s4.28,1.56,4.28,4.25Z"/><path class="cls-1" d="M77.06,26.12H75.63a.23.23,0,0,0-.25.25v7c0,1.93.05,4.32.14,6.23l-.07,0c-.58-1.09-1.31-2.31-1.93-3.36l-6.1-9.94a.4.4,0,0,0-.32-.19H65.48c-.18,0-.27.09-.27.25v16c0,.16.09.25.27.25h1.41a.24.24,0,0,0,.27-.25v-7c0-1.82-.06-4.19-.13-6l0,0c.58,1.1,1.34,2.42,2,3.5l6.06,9.59a.32.32,0,0,0,.32.16h1.61a.23.23,0,0,0,.25-.25V26.37A.23.23,0,0,0,77.06,26.12Z"/><path class="cls-1" d="M97.49,26.12H85.39a.37.37,0,0,0-.42.42v2.62c0,.25.14.39.42.39H89.6V42.16c0,.28.14.41.39.41h2.9c.25,0,.39-.13.39-.41V29.55h4.21a.35.35,0,0,0,.39-.39V26.54C97.88,26.26,97.74,26.12,97.49,26.12Z"/><path class="cls-1" d="M112,42.11l-5.34-15.67a.45.45,0,0,0-.43-.32h-3.5a.47.47,0,0,0-.44.32L97,42.11c-.09.28,0,.46.32.46h3.09a.46.46,0,0,0,.46-.34l.87-2.81h5.59l.86,2.81a.46.46,0,0,0,.48.34h3.06C112,42.57,112.13,42.39,112,42.11Zm-9.36-5.89c.62-2,1.33-4.53,1.79-6.07h.09c.46,1.54,1.18,4.05,1.82,6.07Z"/><path class="cls-1" d="M120.32,26.12h-6.1c-.25,0-.39.14-.39.42V42.16c0,.28.14.41.39.41h2.9c.25,0,.39-.13.39-.41V37.79h2.81c3.61,0,5.89-2.26,5.89-5.85S123.93,26.12,120.32,26.12Zm-.51,8.24h-2.3V29.53h2.3c1.75,0,2.6.8,2.6,2.41S121.56,34.36,119.81,34.36Z"/></svg>