<svg xmlns="http://www.w3.org/2000/svg" xmlns:xlink="http://www.w3.org/1999/xlink" viewBox="0 0 1920 1080"><defs><style>.cls-1{fill:none;}.cls-2{fill:#26171b;}.cls-3{fill:#fff;}.cls-4{fill:#fcbb10;}.cls-5{isolation:isolate;}.cls-6{opacity:0.94;mix-blend-mode:soft-light;fill:url(#New_Pattern_2);}</style><pattern id="New_Pattern_2" data-name="New Pattern 2" width="253" height="216" patternTransform="translate(-84.2 223.21) rotate(-18)" patternUnits="userSpaceOnUse" viewBox="0 0 253 216"><rect class="cls-1" width="253" height="216"/><rect class="cls-2" x="147.69" y="202.75" width="4.15" height="4.16"/><path class="cls-2" d="M168.59,202.75H156.07v4.16h14.62A9.89,9.89,0,0,1,168.59,202.75Z"/><path class="cls-2" d="M172.25,202.75a6.09,6.09,0,0,0,11.48,0Z"/><rect class="cls-2" x="186.08" y="202.75" width="4.16" height="4.16"/><rect class="cls-2" x="194.24" y="202.75" width="4.16" height="4.16"/><rect class="cls-2" x="204.92" y="202.75" width="4.16" height="4.16"/><rect class="cls-2" x="216.33" y="202.75" width="153.26" height="4.16"/><path class="cls-3" d="M200.8,249.58V260.2H156.07V249.58h3v7h38.61v-7Zm0-33.65V260.2H156.07V206.91h3v49.71h38.67V223.77a13.38,13.38,0,0,1-18.57-9.71H178a13.31,13.31,0,0,1-11.74-6.93V207h4.45a9.44,9.44,0,0,0,11.84,2.21v2.17a9.77,9.77,0,0,0,9.66,9.86A9.6,9.6,0,0,0,200.8,215.93Zm0,0V260.2H156.07V206.91h3v49.71h38.67V223.77a13.38,13.38,0,0,1-18.57-9.71H178a13.31,13.31,0,0,1-11.74-6.93V207h4.45a9.44,9.44,0,0,0,11.84,2.21v2.17a9.77,9.77,0,0,0,9.66,9.86A9.6,9.6,0,0,0,200.8,215.93Zm0,0V260.2H156.07V197.77h6.08v-.56a2.54,2.54,0,0,1,0-.39,2.08,2.08,0,1,1,4.15.39v.4h2.08v2.9a8.86,8.86,0,0,0,.27,2.29,9.93,9.93,0,0,0,2.1,4.17,9.44,9.44,0,0,0,11.84,2.21v2.17a9.77,9.77,0,0,0,9.66,9.86A9.6,9.6,0,0,0,200.8,215.93Zm-3.06,7.84a13.38,13.38,0,0,1-18.57-9.71H178a13.31,13.31,0,0,1-11.74-7,1,1,0,0,1-.1-.17,13.87,13.87,0,0,1-1.43-4.16,9.1,9.1,0,0,1-.16-1.39h-5.54v55.26h38.61Zm3.06-7.84V260.2H156.07V197.77h6.08v-.56a2.54,2.54,0,0,1,0-.39,2.08,2.08,0,1,1,4.15.39v.4h2.08v2.9a8.86,8.86,0,0,0,.27,2.29,9.93,9.93,0,0,0,2.1,4.17,9.44,9.44,0,0,0,11.84,2.21v2.17a9.77,9.77,0,0,0,9.66,9.86A9.6,9.6,0,0,0,200.8,215.93Zm-3.06,7.84a13.38,13.38,0,0,1-18.57-9.71H178a13.31,13.31,0,0,1-11.74-7,1,1,0,0,1-.1-.17,13.87,13.87,0,0,1-1.43-4.16,9.1,9.1,0,0,1-.16-1.39h-5.54v55.26h38.61Zm3.06-7.84V260.2H156.07V197.77h6.08v-.56a2.54,2.54,0,0,1,0-.39,2.08,2.08,0,1,1,4.15.39v.4h2.08v2.9a8.86,8.86,0,0,0,.27,2.29,9.93,9.93,0,0,0,2.1,4.17,9.44,9.44,0,0,0,11.84,2.21v2.17a9.77,9.77,0,0,0,9.66,9.86A9.6,9.6,0,0,0,200.8,215.93Zm-3.06,7.84a13.38,13.38,0,0,1-18.57-9.71H178a13.31,13.31,0,0,1-11.74-7,1,1,0,0,1-.1-.17,13.87,13.87,0,0,1-1.43-4.16,9.1,9.1,0,0,1-.16-1.39h-5.54v55.26h38.61Zm-7.91-33.4v12.42h-3.75v-8.64h-1.94v3.62H180.4v-7.4Zm2.42,30.84a9.6,9.6,0,0,0,8.55-5.28V260.2H156.07V197.77h6.08v-.56a2.54,2.54,0,0,1,0-.39,2.08,2.08,0,1,1,4.15.39v.4h2.08v2.9a8.86,8.86,0,0,0,.27,2.29,9.93,9.93,0,0,0,2.1,4.17,9.44,9.44,0,0,0,11.84,2.21v2.1a9.77,9.77,0,0,0,9.66,9.86Zm5.49,2.56a13.38,13.38,0,0,1-18.57-9.71H178a13.31,13.31,0,0,1-11.74-7,1,1,0,0,1-.1-.17,13.87,13.87,0,0,1-1.43-4.16,9.1,9.1,0,0,1-.16-1.39h-5.54v55.19h38.61Zm-5.49-2.56a9.6,9.6,0,0,0,8.55-5.28V260.2H156.07V197.77h6.08v-.56a2.54,2.54,0,0,1,0-.39,2.08,2.08,0,1,1,4.15.39v.4h2.08v2.9a8.86,8.86,0,0,0,.27,2.29,9.93,9.93,0,0,0,2.1,4.17,9.44,9.44,0,0,0,11.84,2.21v2.1a9.77,9.77,0,0,0,9.66,9.86Zm5.49,2.56a13.38,13.38,0,0,1-18.57-9.71H178a13.31,13.31,0,0,1-11.74-7,1,1,0,0,1-.1-.17,13.87,13.87,0,0,1-1.43-4.16,9.1,9.1,0,0,1-.16-1.39h-5.54v55.19h38.61Zm-13.6-26H180.4v-7.4h9.43v12.38h-3.75v-8.63h-1.94Zm-36.45,47.61V206.9h-.94c-3.79,0-6.19,1.73-6.19,2.95v32.58c0,1.14,2.4,2.95,6.19,2.95Zm53.11-29.45V260.2H156.07V197.77h6.08v-.56a2.54,2.54,0,0,1,0-.39,2.08,2.08,0,1,1,4.15.39v.4h2.08v2.9a8.86,8.86,0,0,0,.27,2.29,9.93,9.93,0,0,0,2.1,4.17,9.44,9.44,0,0,0,11.84,2.21v2.17a9.77,9.77,0,0,0,9.66,9.86A9.6,9.6,0,0,0,200.8,215.93Zm-3.06,7.84a13.38,13.38,0,0,1-18.57-9.71H178a13.31,13.31,0,0,1-11.74-7,1,1,0,0,1-.1-.17,13.87,13.87,0,0,1-1.43-4.16,9.1,9.1,0,0,1-.16-1.39h-5.54v55.26h38.61Zm-7.91-33.4v12.42h-3.75v-8.64h-1.94v3.62H180.4v-7.4Zm2.42,30.84a9.6,9.6,0,0,0,8.55-5.28V260.2H156.07V197.77h6.08v-.56a2.54,2.54,0,0,1,0-.39,2.08,2.08,0,1,1,4.15.39v.4h2.08v2.9a8.86,8.86,0,0,0,.27,2.29,9.93,9.93,0,0,0,2.1,4.17,9.44,9.44,0,0,0,11.84,2.21v2.1a9.77,9.77,0,0,0,9.66,9.86Zm5.49,2.56a13.38,13.38,0,0,1-18.57-9.71H178a13.31,13.31,0,0,1-11.74-7,1,1,0,0,1-.1-.17,13.87,13.87,0,0,1-1.43-4.16,9.1,9.1,0,0,1-.16-1.39h-5.54v55.19h38.61Zm-5.49-2.56a9.6,9.6,0,0,0,8.55-5.28V260.2H156.07V197.77h6.08v-.56a2.54,2.54,0,0,1,0-.39,2.08,2.08,0,1,1,4.15.39v.4h2.08v2.9a8.86,8.86,0,0,0,.27,2.29,9.93,9.93,0,0,0,2.1,4.17,9.44,9.44,0,0,0,11.84,2.21v2.1a9.77,9.77,0,0,0,9.66,9.86Zm5.49,2.56a13.38,13.38,0,0,1-18.57-9.71H178a13.31,13.31,0,0,1-11.74-7,1,1,0,0,1-.1-.17,13.87,13.87,0,0,1-1.43-4.16,9.1,9.1,0,0,1-.16-1.39h-5.54v55.19h38.61Zm-7.91-26v5h-3.75v-5Zm2.42,23.44a9.6,9.6,0,0,0,8.55-5.28V260.2H156.07V197.77h6.08v-.56a2.54,2.54,0,0,1,0-.39,2.08,2.08,0,1,1,4.15.39v.4h2.08v2.9a8.86,8.86,0,0,0,.27,2.29,9.93,9.93,0,0,0,2.1,4.17,9.44,9.44,0,0,0,11.84,2.21v2.26a9.77,9.77,0,0,0,9.66,9.86Zm5.49,2.56a13.38,13.38,0,0,1-18.57-9.71H178a13.31,13.31,0,0,1-11.74-7,1,1,0,0,1-.1-.17,13.87,13.87,0,0,1-1.43-4.16,9.1,9.1,0,0,1-.16-1.39h-5.54v55.35h38.61Zm-5.49-2.56a9.6,9.6,0,0,0,8.55-5.28V260.2H156.07V197.77h6.08v-.56a2.54,2.54,0,0,1,0-.39,2.08,2.08,0,1,1,4.15.39v.4h2.08v2.9a8.86,8.86,0,0,0,.27,2.29,9.93,9.93,0,0,0,2.1,4.17,9.44,9.44,0,0,0,11.84,2.21v2.26a9.77,9.77,0,0,0,9.66,9.86Zm5.49,2.56a13.38,13.38,0,0,1-18.57-9.71H178a13.31,13.31,0,0,1-11.74-7,1,1,0,0,1-.1-.17,13.87,13.87,0,0,1-1.43-4.16,9.1,9.1,0,0,1-.16-1.39h-5.54v55.35h38.61Zm-5.49-2.56a9.6,9.6,0,0,0,8.55-5.28V260.2H156.07V206.91h3v49.71h38.67V223.77a13.38,13.38,0,0,1-18.57-9.71H178a13.31,13.31,0,0,1-11.74-6.93V207h4.45a9.44,9.44,0,0,0,11.84,2.21v2.26a9.77,9.77,0,0,0,9.66,9.86Zm0,0a9.6,9.6,0,0,0,8.55-5.28V260.2H156.07V206.91h3v49.71h38.67V223.77a13.38,13.38,0,0,1-18.57-9.71H178a13.31,13.31,0,0,1-11.74-6.93V207h4.45a9.44,9.44,0,0,0,11.84,2.21v2.26a9.77,9.77,0,0,0,9.66,9.86Zm0,0a9.6,9.6,0,0,0,8.55-5.28V260.2H156.07V249.58h3v7h38.67V223.77a13.38,13.38,0,0,1-18.57-9.71H178a13.31,13.31,0,0,1-11.74-6.93V207h4.45a9.44,9.44,0,0,0,11.84,2.21v2.26a9.77,9.77,0,0,0,9.66,9.86Zm8.55,28.37V260.2H156.07V249.58h3v7.13h38.61v-7Zm8.29-61.06A13.56,13.56,0,0,1,209,190h0v70.92a5.34,5.34,0,0,1,0,.8,6.8,6.8,0,0,1-6.6,6.41H154.31a6.83,6.83,0,0,1-6.62-6.32,5.34,5.34,0,0,1,0-.8v-11.4h-.94c-5.8,0-10.34-3.13-10.34-7.11V209.86c0-4,4.54-7.11,10.34-7.24h.92V190a4.51,4.51,0,0,1,0-.52,10.68,10.68,0,0,1,10.14-11,13.42,13.42,0,0,1,12.36-9.05,12.13,12.13,0,0,1,2.68.33,14.9,14.9,0,0,1,11.6-5.76,15.74,15.74,0,0,1,14.9,12.67,10.85,10.85,0,0,1,6.84,3.95,12.52,12.52,0,0,1,2.9,8.07Zm-57.26,1V190H176v10.5a2.41,2.41,0,0,0,0,.38,2,2,0,1,0,4-.38V190h10.35v21.4a2.41,2.41,0,0,0,0,.38,2,2,0,0,0,4-.38V190.06H204.8a7.6,7.6,0,0,0,.12-1.43,7.47,7.47,0,0,0-7-7.85h-.23l-1.94.09-.23-1.92a11.71,11.71,0,0,0-11.08-10.86,10.83,10.83,0,0,0-9.05,5.12l-.91,1.37L173,174a8.33,8.33,0,0,0-2.8-.49,9.38,9.38,0,0,0-8.83,7.63l-.46,2-1.95-.38a4.4,4.4,0,0,0-1-.09A6.5,6.5,0,0,0,151.83,189.5Zm53.09,4.62h-6.51v17.23c0,.22,0,.44,0,.67a6.17,6.17,0,0,1-12.33-.67V194.12h-1.94v6.33a6.2,6.2,0,0,1-.41,2.3,6.09,6.09,0,0,1-11.48,0,6.42,6.42,0,0,1-.42-2.3v-6.33h-20v66.79a2.16,2.16,0,0,0,0,.36,2.65,2.65,0,0,0,2.48,2.59H202.5a2.7,2.7,0,0,0,2.48-2.59,2.16,2.16,0,0,0,0-.36Z"/><path class="cls-4" d="M180,197.77v2.68a2.41,2.41,0,0,1,0,.38,2,2,0,0,1-4-.38v-2.68h-4.15v2.68a6.42,6.42,0,0,0,.42,2.3,6.09,6.09,0,0,0,11.48,0,6.2,6.2,0,0,0,.41-2.3v-2.68Z"/><path class="cls-4" d="M194.24,197.77v13.58a1.21,1.21,0,0,1,0,.38,2,2,0,0,1-4-.38V197.77h-4.16v13.58c0,.22,0,.44,0,.67a6.17,6.17,0,1,0,12.33-.67V197.77Z"/><path class="cls-4" d="M192.25,221.21a9.77,9.77,0,0,1-9.66-9.86v-2.17a9.63,9.63,0,0,1-11.9-2.27,10,10,0,0,1-2.37-6.46v-2.68H156.07V260.2H200.8V215.93A9.6,9.6,0,0,1,192.25,221.21Z"/><path class="cls-3" d="M166.3,197.21v.4h-4.15v-.4a2.08,2.08,0,1,1,4.15,0ZM209.09,190h0v7.66h-4.17v-3.49h-6.51v17.23c0,.22,0,.44,0,.67a6.17,6.17,0,0,1-12.33-.67V194.12h-1.94v6.33a6.2,6.2,0,0,1-.41,2.3,6.09,6.09,0,0,1-11.48,0,6.42,6.42,0,0,1-.42-2.3v-6.33h-20v3.42h-4.16V190a4.51,4.51,0,0,1,0-.52,10.68,10.68,0,0,1,10.14-11,13.42,13.42,0,0,1,12.36-9.05,12.13,12.13,0,0,1,2.68.33,14.9,14.9,0,0,1,11.6-5.76,15.74,15.74,0,0,1,14.9,12.67,10.9,10.9,0,0,1,6.84,3.86,12.52,12.52,0,0,1,2.9,8.07C209.11,189,209.11,189.48,209.09,190Zm-4.17-1.32a7.47,7.47,0,0,0-7-7.85h-.23l-1.94.09-.23-1.92a11.71,11.71,0,0,0-11.08-10.86,10.83,10.83,0,0,0-9.05,5.12l-.91,1.37L173,174a8.33,8.33,0,0,0-2.8-.49,9.38,9.38,0,0,0-8.83,7.63l-.46,2-1.95-.38a4.4,4.4,0,0,0-1-.09,6.5,6.5,0,0,0-6.08,6.86V190H176v10.5a2.41,2.41,0,0,0,0,.38,2,2,0,1,0,4-.38V190h10.35v21.4a2.41,2.41,0,0,0,0,.38,2,2,0,0,0,4-.38V190h10.48A6.48,6.48,0,0,0,204.92,188.63Z"/><path class="cls-3" d="M198,180.22a7.86,7.86,0,0,1,7.37,8.34,8.51,8.51,0,0,1-.2,1.81H194.66v21a2.94,2.94,0,0,1,0,.42,2.42,2.42,0,0,1-4.83-.42v-21H180.4v10a2.69,2.69,0,0,1-1.25,2.3A2.16,2.16,0,0,1,178,203a2.07,2.07,0,0,1-1.14-.32,2.65,2.65,0,0,1-1.29-2.3V190.31H151.42v-.86a6.92,6.92,0,0,1,6.49-7.24,6.59,6.59,0,0,1,1.09.09l1.58.3.36-1.55a9.77,9.77,0,0,1,9.23-8,8.5,8.5,0,0,1,3,.53l1.23.45.72-1.11a11.31,11.31,0,0,1,9.36-5.43,12.12,12.12,0,0,1,11.5,11.14l.18,1.53H198Zm6.79,9.73a6.48,6.48,0,0,0,.11-1.32,7.47,7.47,0,0,0-7-7.85h-.23l-1.94.09-.23-1.92a11.71,11.71,0,0,0-11.08-10.86,10.83,10.83,0,0,0-9.05,5.12l-.91,1.37L173,174a8.33,8.33,0,0,0-2.8-.49,9.38,9.38,0,0,0-8.83,7.63l-.46,2-1.95-.38a4.4,4.4,0,0,0-1-.09,6.5,6.5,0,0,0-6.08,6.86V190H176v10.5a2.41,2.41,0,0,0,0,.38,2,2,0,1,0,4-.38V190h10.35v21.4a2.41,2.41,0,0,0,0,.38,2,2,0,0,0,4-.38V189.92H204.8Z"/><path class="cls-2" d="M166.3,196.82a2.08,2.08,0,1,0-4.15.39v36.86a2.41,2.41,0,0,0,0,.38,2.08,2.08,0,0,0,4.15-.38V197.21A2.54,2.54,0,0,0,166.3,196.82Z"/><path class="cls-2" d="M198.41,206.91v4.44c0,.22,0,.44,0,.67a6.17,6.17,0,0,1-12.33-.67V197.77h3.84v5h.41v8.6a2.41,2.41,0,0,0,0,.38,2,2,0,0,0,4-.38v-4.44Zm-8.08-17v12.8h-.41v-5h-3.75v-3.62h-1.94v3.62h-4.16V190Zm0,0v12.8h-.41v-5h-3.75v-3.62h-1.94v3.62h-4.16V190Zm0,0v12.8h-.41v-5h-3.75v-3.62h-1.94v3.62h-4.16V190Zm0,0v12.8h-.41v-5h-3.75v-3.62h-1.94v3.62h-4.16V190Zm-.41.42v12.42h-3.75v-8.64h-1.94v3.62h-3.74v-7.4Zm0,0v12.42h-3.75v-8.64h-1.94v3.62h-3.74v-7.4Zm-42.23,55V206.9h-.94c-3.79,0-6.19,1.73-6.19,2.95v32.58c0,1.14,2.4,2.95,6.19,2.95Zm42.14-55v12.42h-3.75v-8.64h-1.94v3.62H180.4v-7.4Zm0,7.4v5h-3.75v-5Zm.41-7.82v12.8h-.41v-5h-3.75v-3.62h-1.94v3.62H180V190Zm0,0v12.8h-.41v-5h-3.75v-3.62h-1.94v3.62H180V190Zm0,0v12.8h-.41v-5h-3.75v-3.62h-1.94v3.62H180V190Zm0,0v12.8h-.41v-5h-3.75v-3.62h-1.94v3.62H180V190Zm8.17,17v4.44c0,.22,0,.44,0,.67a6.17,6.17,0,0,1-12.33-.67V197.77h3.84v5h.41v8.6a2.41,2.41,0,0,0,0,.38,2,2,0,0,0,4-.38v-4.44Zm10.68-18.39A13.56,13.56,0,0,1,209,190h0v70.92a5.34,5.34,0,0,1,0,.8,6.8,6.8,0,0,1-6.6,6.41H154.31a6.83,6.83,0,0,1-6.62-6.32,5.34,5.34,0,0,1,0-.8v-11.4h-.94c-5.8,0-10.34-3.13-10.34-7.11V209.86c0-4,4.54-7.11,10.34-7.24h.92V190a4.51,4.51,0,0,1,0-.52,10.68,10.68,0,0,1,10.14-11,13.42,13.42,0,0,1,12.36-9.05,12.13,12.13,0,0,1,2.68.33,14.9,14.9,0,0,1,11.6-5.76,15.74,15.74,0,0,1,14.9,12.67,10.9,10.9,0,0,1,6.93,3.86,12.52,12.52,0,0,1,2.9,8.07Zm-57.26,1V190H176v10.5a2.41,2.41,0,0,0,0,.38,2,2,0,1,0,4-.38V190h10.35v21.4a2.41,2.41,0,0,0,0,.38,2,2,0,0,0,4-.38V190.06H204.8a7.6,7.6,0,0,0,.12-1.43,7.47,7.47,0,0,0-7-7.85h-.23l-1.94.09-.23-1.92a11.71,11.71,0,0,0-11.08-10.86,10.83,10.83,0,0,0-9.05,5.12l-.91,1.37L173,174a8.33,8.33,0,0,0-2.8-.49,9.38,9.38,0,0,0-8.83,7.63l-.46,2-1.95-.38a4.4,4.4,0,0,0-1-.09A6.5,6.5,0,0,0,151.83,189.5Zm53.09,4.62h-6.51v17.23c0,.22,0,.44,0,.67a6.17,6.17,0,0,1-12.33-.67V194.12h-1.94v6.33a6.2,6.2,0,0,1-.41,2.3,6.09,6.09,0,0,1-11.48,0,6.42,6.42,0,0,1-.42-2.3v-6.33h-20v66.79a2.16,2.16,0,0,0,0,.36,2.65,2.65,0,0,0,2.48,2.59H202.5a2.7,2.7,0,0,0,2.48-2.59,2.16,2.16,0,0,0,0-.36Z"/><path class="cls-2" d="M248.08,221.74v8.8c0,6.64-4.33,10.86-11.37,10.86s-11.39-4.17-11.39-10.86v-8.8c0-6.83,4.35-11,11.39-11S248.08,214.91,248.08,221.74Zm-3.62,0c0-4.87-2.79-7.69-7.75-7.69s-7.8,2.82-7.8,7.69v8.8c0,4.7,2.86,7.53,7.8,7.53s7.75-2.83,7.75-7.53Z"/><rect class="cls-2" x="-36.67" y="202.75" width="153.26" height="4.16"/><path class="cls-2" d="M22.9,211.2a.42.42,0,0,1,.38.46v29a.42.42,0,0,1-.45.37H19.91a.58.58,0,0,1-.58-.29l-11-17.36c-1.19-2-2.57-4.34-3.62-6.33h0c.13,3.27.24,7.56.24,10.86V240.6a.22.22,0,0,1,0,.08.43.43,0,0,1-.48.37H1.94c-.33,0-.49-.16-.49-.45v-29c0-.29.16-.45.49-.45H4.87a.73.73,0,0,1,.58.34l11,18c1.12,1.9,2.44,4.11,3.49,6.08h.13c-.16-3.45-.25-7.78-.25-11.27V211.66a.11.11,0,0,1,0-.08.42.42,0,0,1,.45-.38Z"/><path class="cls-2" d="M60.58,212v4.75a.38.38,0,0,1,0,.15.62.62,0,0,1-.7.55H52.26v22.83a.65.65,0,0,1-.71.74H46.3c-.45,0-.7-.24-.7-.74V217.41H38c-.51,0-.76-.25-.76-.7V212a.61.61,0,0,1,0-.19.67.67,0,0,1,.76-.57h21.9C60.33,211.2,60.58,211.46,60.58,212Z"/><path class="cls-2" d="M85.66,241H80.12a.83.83,0,0,1-.87-.62l-1.56-5.08H67.57L66,240.36a.84.84,0,0,1-.84.62H59.57c-.58,0-.74-.33-.58-.83l9.58-28.37a.85.85,0,0,1,.79-.58H75.7a.83.83,0,0,1,.78.58l9.66,28.37C86.38,240.65,86.14,241,85.66,241ZM75.9,229.49c-1.16-3.66-2.46-8.2-3.3-11h-.16c-.83,2.79-2.12,7.37-3.24,11Z"/><path class="cls-2" d="M111.87,221.74c0,6.5-4.13,10.59-10.67,10.59H96.12v7.91a.65.65,0,0,1-.71.74H90.16c-.45,0-.7-.24-.7-.74V212c0-.5.25-.76.7-.76h11C107.74,211.2,111.87,215.24,111.87,221.74Zm-6.88,0c0-2.92-1.54-4.36-4.71-4.36H96.12v8.74h4.16C103.45,226.12,105,224.65,105,221.74Z"/><rect class="cls-2" x="21.19" y="94.75" width="4.15" height="4.16"/><path class="cls-2" d="M42.09,94.75H29.57v4.16H44.19A9.89,9.89,0,0,1,42.09,94.75Z"/><path class="cls-2" d="M45.75,94.75a6.09,6.09,0,0,0,11.48,0Z"/><rect class="cls-2" x="59.58" y="94.75" width="4.16" height="4.16"/><rect class="cls-2" x="67.74" y="94.75" width="4.16" height="4.16"/><rect class="cls-2" x="78.42" y="94.75" width="4.16" height="4.16"/><rect class="cls-2" x="89.83" y="94.75" width="153.26" height="4.16"/><rect class="cls-2" x="21.19" y="137.41" width="4.15" height="4.16"/><rect class="cls-2" x="29.57" y="137.41" width="44.73" height="4.16"/><rect class="cls-2" x="78.42" y="137.41" width="4.16" height="4.16"/><rect class="cls-2" x="89.83" y="137.41" width="153.26" height="4.16"/><path class="cls-3" d="M74.3,141.58V152.2H29.57V141.58h3v7H71.18v-7Zm0-33.65V152.2H29.57V98.91h3v49.71H71.24V115.77a13.38,13.38,0,0,1-18.57-9.71H51.54A13.31,13.31,0,0,1,39.8,99.13V99h4.45a9.44,9.44,0,0,0,11.84,2.21v2.17a9.77,9.77,0,0,0,9.66,9.86A9.6,9.6,0,0,0,74.3,107.93Zm0,0V152.2H29.57V98.91h3v49.71H71.24V115.77a13.38,13.38,0,0,1-18.57-9.71H51.54A13.31,13.31,0,0,1,39.8,99.13V99h4.45a9.44,9.44,0,0,0,11.84,2.21v2.17a9.77,9.77,0,0,0,9.66,9.86A9.6,9.6,0,0,0,74.3,107.93Zm0,0V152.2H29.57V89.77h6.08v-.56a2.54,2.54,0,0,1,0-.39,2.08,2.08,0,0,1,4.15.39v.4h2.08v2.9a8.86,8.86,0,0,0,.27,2.29A9.93,9.93,0,0,0,44.25,99a9.44,9.44,0,0,0,11.84,2.21v2.17a9.77,9.77,0,0,0,9.66,9.86A9.6,9.6,0,0,0,74.3,107.93Zm-3.06,7.84a13.38,13.38,0,0,1-18.57-9.71H51.54a13.31,13.31,0,0,1-11.74-7,1,1,0,0,1-.1-.17,13.87,13.87,0,0,1-1.43-4.16,9.1,9.1,0,0,1-.16-1.39H32.57v55.26H71.18Zm3.06-7.84V152.2H29.57V89.77h6.08v-.56a2.54,2.54,0,0,1,0-.39,2.08,2.08,0,0,1,4.15.39v.4h2.08v2.9a8.86,8.86,0,0,0,.27,2.29A9.93,9.93,0,0,0,44.25,99a9.44,9.44,0,0,0,11.84,2.21v2.17a9.77,9.77,0,0,0,9.66,9.86A9.6,9.6,0,0,0,74.3,107.93Zm-3.06,7.84a13.38,13.38,0,0,1-18.57-9.71H51.54a13.31,13.31,0,0,1-11.74-7,1,1,0,0,1-.1-.17,13.87,13.87,0,0,1-1.43-4.16,9.1,9.1,0,0,1-.16-1.39H32.57v55.26H71.18Zm3.06-7.84V152.2H29.57V89.77h6.08v-.56a2.54,2.54,0,0,1,0-.39,2.08,2.08,0,0,1,4.15.39v.4h2.08v2.9a8.86,8.86,0,0,0,.27,2.29A9.93,9.93,0,0,0,44.25,99a9.44,9.44,0,0,0,11.84,2.21v2.17a9.77,9.77,0,0,0,9.66,9.86A9.6,9.6,0,0,0,74.3,107.93Zm-3.06,7.84a13.38,13.38,0,0,1-18.57-9.71H51.54a13.31,13.31,0,0,1-11.74-7,1,1,0,0,1-.1-.17,13.87,13.87,0,0,1-1.43-4.16,9.1,9.1,0,0,1-.16-1.39H32.57v55.26H71.18Zm-7.91-33.4V94.79H59.58V86.15H57.64v3.62H53.9v-7.4Zm2.42,30.84a9.6,9.6,0,0,0,8.55-5.28V152.2H29.57V89.77h6.08v-.56a2.54,2.54,0,0,1,0-.39,2.08,2.08,0,0,1,4.15.39v.4h2.08v2.9a8.86,8.86,0,0,0,.27,2.29A9.93,9.93,0,0,0,44.25,99a9.44,9.44,0,0,0,11.84,2.21v2.1a9.77,9.77,0,0,0,9.66,9.86Zm5.49,2.56a13.38,13.38,0,0,1-18.57-9.71H51.54a13.31,13.31,0,0,1-11.74-7,1,1,0,0,1-.1-.17,13.87,13.87,0,0,1-1.43-4.16,9.1,9.1,0,0,1-.16-1.39H32.57v55.19H71.18Zm-5.49-2.56a9.6,9.6,0,0,0,8.55-5.28V152.2H29.57V89.77h6.08v-.56a2.54,2.54,0,0,1,0-.39,2.08,2.08,0,0,1,4.15.39v.4h2.08v2.9a8.86,8.86,0,0,0,.27,2.29A9.93,9.93,0,0,0,44.25,99a9.44,9.44,0,0,0,11.84,2.21v2.1a9.77,9.77,0,0,0,9.66,9.86Zm5.49,2.56a13.38,13.38,0,0,1-18.57-9.71H51.54a13.31,13.31,0,0,1-11.74-7,1,1,0,0,1-.1-.17,13.87,13.87,0,0,1-1.43-4.16,9.1,9.1,0,0,1-.16-1.39H32.57v55.19H71.18Zm-13.6-26H53.9v-7.4h9.43V94.75H59.58V86.12H57.64ZM21.19,137.38V98.9h-.94c-3.79,0-6.19,1.73-6.19,2.95v32.58c0,1.14,2.4,2.95,6.19,2.95ZM74.3,107.93V152.2H29.57V89.77h6.08v-.56a2.54,2.54,0,0,1,0-.39,2.08,2.08,0,0,1,4.15.39v.4h2.08v2.9a8.86,8.86,0,0,0,.27,2.29A9.93,9.93,0,0,0,44.25,99a9.44,9.44,0,0,0,11.84,2.21v2.17a9.77,9.77,0,0,0,9.66,9.86A9.6,9.6,0,0,0,74.3,107.93Zm-3.06,7.84a13.38,13.38,0,0,1-18.57-9.71H51.54a13.31,13.31,0,0,1-11.74-7,1,1,0,0,1-.1-.17,13.87,13.87,0,0,1-1.43-4.16,9.1,9.1,0,0,1-.16-1.39H32.57v55.26H71.18Zm-7.91-33.4V94.79H59.58V86.15H57.64v3.62H53.9v-7.4Zm2.42,30.84a9.6,9.6,0,0,0,8.55-5.28V152.2H29.57V89.77h6.08v-.56a2.54,2.54,0,0,1,0-.39,2.08,2.08,0,0,1,4.15.39v.4h2.08v2.9a8.86,8.86,0,0,0,.27,2.29A9.93,9.93,0,0,0,44.25,99a9.44,9.44,0,0,0,11.84,2.21v2.1a9.77,9.77,0,0,0,9.66,9.86Zm5.49,2.56a13.38,13.38,0,0,1-18.57-9.71H51.54a13.31,13.31,0,0,1-11.74-7,1,1,0,0,1-.1-.17,13.87,13.87,0,0,1-1.43-4.16,9.1,9.1,0,0,1-.16-1.39H32.57v55.19H71.18Zm-5.49-2.56a9.6,9.6,0,0,0,8.55-5.28V152.2H29.57V89.77h6.08v-.56a2.54,2.54,0,0,1,0-.39,2.08,2.08,0,0,1,4.15.39v.4h2.08v2.9a8.86,8.86,0,0,0,.27,2.29A9.93,9.93,0,0,0,44.25,99a9.44,9.44,0,0,0,11.84,2.21v2.1a9.77,9.77,0,0,0,9.66,9.86Zm5.49,2.56a13.38,13.38,0,0,1-18.57-9.71H51.54a13.31,13.31,0,0,1-11.74-7,1,1,0,0,1-.1-.17,13.87,13.87,0,0,1-1.43-4.16,9.1,9.1,0,0,1-.16-1.39H32.57v55.19H71.18Zm-7.91-26v5H59.58v-5Zm2.42,23.44a9.6,9.6,0,0,0,8.55-5.28V152.2H29.57V89.77h6.08v-.56a2.54,2.54,0,0,1,0-.39,2.08,2.08,0,0,1,4.15.39v.4h2.08v2.9a8.86,8.86,0,0,0,.27,2.29A9.93,9.93,0,0,0,44.25,99a9.44,9.44,0,0,0,11.84,2.21v2.26a9.77,9.77,0,0,0,9.66,9.86Zm5.49,2.56a13.38,13.38,0,0,1-18.57-9.71H51.54a13.31,13.31,0,0,1-11.74-7,1,1,0,0,1-.1-.17,13.87,13.87,0,0,1-1.43-4.16,9.1,9.1,0,0,1-.16-1.39H32.57v55.35H71.18Zm-5.49-2.56a9.6,9.6,0,0,0,8.55-5.28V152.2H29.57V89.77h6.08v-.56a2.54,2.54,0,0,1,0-.39,2.08,2.08,0,0,1,4.15.39v.4h2.08v2.9a8.86,8.86,0,0,0,.27,2.29A9.93,9.93,0,0,0,44.25,99a9.44,9.44,0,0,0,11.84,2.21v2.26a9.77,9.77,0,0,0,9.66,9.86Zm5.49,2.56a13.38,13.38,0,0,1-18.57-9.71H51.54a13.31,13.31,0,0,1-11.74-7,1,1,0,0,1-.1-.17,13.87,13.87,0,0,1-1.43-4.16,9.1,9.1,0,0,1-.16-1.39H32.57v55.35H71.18Zm-5.49-2.56a9.6,9.6,0,0,0,8.55-5.28V152.2H29.57V98.91h3v49.71H71.24V115.77a13.38,13.38,0,0,1-18.57-9.71H51.54A13.31,13.31,0,0,1,39.8,99.13V99h4.45a9.44,9.44,0,0,0,11.84,2.21v2.26a9.77,9.77,0,0,0,9.66,9.86Zm0,0a9.6,9.6,0,0,0,8.55-5.28V152.2H29.57V98.91h3v49.71H71.24V115.77a13.38,13.38,0,0,1-18.57-9.71H51.54A13.31,13.31,0,0,1,39.8,99.13V99h4.45a9.44,9.44,0,0,0,11.84,2.21v2.26a9.77,9.77,0,0,0,9.66,9.86Zm0,0a9.6,9.6,0,0,0,8.55-5.28V152.2H29.57V141.58h3v7H71.24V115.77a13.38,13.38,0,0,1-18.57-9.71H51.54A13.31,13.31,0,0,1,39.8,99.13V99h4.45a9.44,9.44,0,0,0,11.84,2.21v2.26a9.77,9.77,0,0,0,9.66,9.86Zm8.55,28.37V152.2H29.57V141.58h3v7.13H71.18v-7Zm8.29-61.06A13.56,13.56,0,0,1,82.53,82h0v70.92a5.34,5.34,0,0,1,0,.8,6.8,6.8,0,0,1-6.6,6.41H27.81a6.83,6.83,0,0,1-6.62-6.32,5.34,5.34,0,0,1,0-.8v-11.4h-.94c-5.8,0-10.34-3.13-10.34-7.11V101.86c0-4,4.54-7.11,10.34-7.24h.92V82a4.51,4.51,0,0,1,0-.52,10.68,10.68,0,0,1,10.14-11,13.42,13.42,0,0,1,12.36-9.05,12.13,12.13,0,0,1,2.68.33A14.9,14.9,0,0,1,58,55.92a15.74,15.74,0,0,1,14.9,12.67,10.85,10.85,0,0,1,6.84,4,12.52,12.52,0,0,1,2.9,8.07Zm-57.26,1V82H49.48v10.5a2.41,2.41,0,0,0,0,.38,2,2,0,0,0,4-.38V82H63.83v21.4a2.41,2.41,0,0,0,0,.38,2,2,0,0,0,4-.38V82.06H78.3a7.6,7.6,0,0,0,.12-1.43,7.47,7.47,0,0,0-7-7.85h-.23l-1.94.09L69.05,71A11.71,11.71,0,0,0,58,60.09a10.83,10.83,0,0,0-9,5.12L48,66.58,46.47,66a8.33,8.33,0,0,0-2.8-.49,9.38,9.38,0,0,0-8.83,7.63l-.46,2-2-.38a4.4,4.4,0,0,0-1-.09A6.5,6.5,0,0,0,25.33,81.5Zm53.09,4.62H71.91v17.23c0,.22,0,.44,0,.67a6.17,6.17,0,0,1-12.33-.67V86.12H57.64v6.33a6.2,6.2,0,0,1-.41,2.3,6.09,6.09,0,0,1-11.48,0,6.42,6.42,0,0,1-.42-2.3V86.12h-20v66.79a2.16,2.16,0,0,0,0,.36,2.65,2.65,0,0,0,2.48,2.59H76a2.7,2.7,0,0,0,2.48-2.59,2.16,2.16,0,0,0,0-.36Z"/><path class="cls-4" d="M53.48,89.77v2.68a2.41,2.41,0,0,1,0,.38,2,2,0,1,1-4-.38V89.77H45.33v2.68a6.42,6.42,0,0,0,.42,2.3,6.09,6.09,0,0,0,11.48,0,6.2,6.2,0,0,0,.41-2.3V89.77Z"/><path class="cls-4" d="M67.74,89.77v13.58a1.21,1.21,0,0,1,0,.38,2,2,0,0,1-4-.38V89.77H59.58v13.58c0,.22,0,.44,0,.67a6.17,6.17,0,0,0,12.33-.67V89.77Z"/><path class="cls-4" d="M65.75,113.21a9.77,9.77,0,0,1-9.66-9.86v-2.17a9.63,9.63,0,0,1-11.9-2.27,10,10,0,0,1-2.37-6.46V89.77H29.57V152.2H74.3V107.93A9.6,9.6,0,0,1,65.75,113.21Z"/><path class="cls-3" d="M39.8,89.21v.4H35.65v-.4a2.08,2.08,0,1,1,4.15,0ZM82.59,82h0v7.66H78.42V86.12H71.91v17.23c0,.22,0,.44,0,.67a6.17,6.17,0,0,1-12.33-.67V86.12H57.64v6.33a6.2,6.2,0,0,1-.41,2.3,6.09,6.09,0,0,1-11.48,0,6.42,6.42,0,0,1-.42-2.3V86.12h-20v3.42H21.17V82a4.51,4.51,0,0,1,0-.52,10.68,10.68,0,0,1,10.14-11,13.42,13.42,0,0,1,12.36-9.05,12.13,12.13,0,0,1,2.68.33A14.9,14.9,0,0,1,58,55.92a15.74,15.74,0,0,1,14.9,12.67,10.9,10.9,0,0,1,6.84,3.86,12.52,12.52,0,0,1,2.9,8.07C82.61,81,82.61,81.48,82.59,82Zm-4.17-1.32a7.47,7.47,0,0,0-7-7.85h-.23l-1.94.09L69.05,71A11.71,11.71,0,0,0,58,60.09a10.83,10.83,0,0,0-9,5.12L48,66.58,46.47,66a8.33,8.33,0,0,0-2.8-.49,9.38,9.38,0,0,0-8.83,7.63l-.46,2-2-.38a4.4,4.4,0,0,0-1-.09,6.5,6.5,0,0,0-6.08,6.86V82H49.48v10.5a2.41,2.41,0,0,0,0,.38,2,2,0,0,0,4-.38V82H63.83v21.4a2.41,2.41,0,0,0,0,.38,2,2,0,0,0,4-.38V82H78.31A6.48,6.48,0,0,0,78.42,80.63Z"/><path class="cls-3" d="M71.52,72.22a7.86,7.86,0,0,1,7.37,8.34,8.51,8.51,0,0,1-.2,1.81H68.16v21a2.94,2.94,0,0,1,0,.42,2.42,2.42,0,0,1-4.83-.42v-21H53.9v10a2.69,2.69,0,0,1-1.25,2.3,2.16,2.16,0,0,1-1.16.32,2.07,2.07,0,0,1-1.14-.32,2.65,2.65,0,0,1-1.29-2.3V82.31H24.92v-.86a6.92,6.92,0,0,1,6.49-7.24,6.59,6.59,0,0,1,1.09.09l1.58.3.36-1.55a9.77,9.77,0,0,1,9.23-8,8.5,8.5,0,0,1,2.95.53l1.23.45L48.57,65a11.31,11.31,0,0,1,9.36-5.43,12.12,12.12,0,0,1,11.5,11.14l.18,1.53h1.91ZM78.31,82a6.48,6.48,0,0,0,.11-1.32,7.47,7.47,0,0,0-7-7.85h-.23l-1.94.09L69.05,71A11.71,11.71,0,0,0,58,60.09a10.83,10.83,0,0,0-9,5.12L48,66.58,46.47,66a8.33,8.33,0,0,0-2.8-.49,9.38,9.38,0,0,0-8.83,7.63l-.46,2-2-.38a4.4,4.4,0,0,0-1-.09,6.5,6.5,0,0,0-6.08,6.86V82H49.48v10.5a2.41,2.41,0,0,0,0,.38,2,2,0,0,0,4-.38V82H63.83v21.4a2.41,2.41,0,0,0,0,.38,2,2,0,0,0,4-.38V81.92H78.3Z"/><path class="cls-2" d="M39.8,88.82a2.08,2.08,0,1,0-4.15.39v36.86a2.41,2.41,0,0,0,0,.38,2.08,2.08,0,0,0,4.15-.38V89.21A2.54,2.54,0,0,0,39.8,88.82Z"/><path class="cls-2" d="M55.63,144.78v-9.72a2.54,2.54,0,0,1,0-.39,2.08,2.08,0,0,1,4.15.39v9.72h0a2.08,2.08,0,1,1-4.15,0Z"/><path class="cls-2" d="M71.91,98.91v4.44c0,.22,0,.44,0,.67a6.17,6.17,0,0,1-12.33-.67V89.77h3.84v5h.41v8.6a2.41,2.41,0,0,0,0,.38,2,2,0,0,0,4-.38V98.91ZM63.83,82v12.8h-.41v-5H59.67V86.15H57.73v3.62H53.57V82Zm0,0v12.8h-.41v-5H59.67V86.15H57.73v3.62H53.57V82Zm0,0v12.8h-.41v-5H59.67V86.15H57.73v3.62H53.57V82Zm0,0v12.8h-.41v-5H59.67V86.15H57.73v3.62H53.57V82Zm-.41.42V94.79H59.67V86.15H57.73v3.62H54v-7.4Zm0,0V94.79H59.67V86.15H57.73v3.62H54v-7.4Zm-42.23,55V98.9h-.94c-3.79,0-6.19,1.73-6.19,2.95v32.58c0,1.14,2.4,2.95,6.19,2.95Zm42.14-55V94.79H59.58V86.15H57.64v3.62H53.9v-7.4Zm0,7.4v5H59.58v-5ZM63.74,82v12.8h-.41v-5H59.58V86.15H57.64v3.62H53.48V82Zm0,0v12.8h-.41v-5H59.58V86.15H57.64v3.62H53.48V82Zm0,0v12.8h-.41v-5H59.58V86.15H57.64v3.62H53.48V82Zm0,0v12.8h-.41v-5H59.58V86.15H57.64v3.62H53.48V82Zm8.17,17v4.44c0,.22,0,.44,0,.67a6.17,6.17,0,0,1-12.33-.67V89.77h3.84v5h.41v8.6a2.41,2.41,0,0,0,0,.38,2,2,0,0,0,4-.38V98.91ZM82.59,80.52A13.56,13.56,0,0,1,82.53,82h0v70.92a5.34,5.34,0,0,1,0,.8,6.8,6.8,0,0,1-6.6,6.41H27.81a6.83,6.83,0,0,1-6.62-6.32,5.34,5.34,0,0,1,0-.8v-11.4h-.94c-5.8,0-10.34-3.13-10.34-7.11V101.86c0-4,4.54-7.11,10.34-7.24h.92V82a4.51,4.51,0,0,1,0-.52,10.68,10.68,0,0,1,10.14-11,13.42,13.42,0,0,1,12.36-9.05,12.13,12.13,0,0,1,2.68.33A14.9,14.9,0,0,1,58,55.92a15.74,15.74,0,0,1,14.9,12.67,10.9,10.9,0,0,1,6.93,3.86,12.52,12.52,0,0,1,2.9,8.07Zm-57.26,1V82H49.48v10.5a2.41,2.41,0,0,0,0,.38,2,2,0,0,0,4-.38V82H63.83v21.4a2.41,2.41,0,0,0,0,.38,2,2,0,0,0,4-.38V82.06H78.3a7.6,7.6,0,0,0,.12-1.43,7.47,7.47,0,0,0-7-7.85h-.23l-1.94.09L69.05,71A11.71,11.71,0,0,0,58,60.09a10.83,10.83,0,0,0-9,5.12L48,66.58,46.47,66a8.33,8.33,0,0,0-2.8-.49,9.38,9.38,0,0,0-8.83,7.63l-.46,2-2-.38a4.4,4.4,0,0,0-1-.09A6.5,6.5,0,0,0,25.33,81.5Zm53.09,4.62H71.91v17.23c0,.22,0,.44,0,.67a6.17,6.17,0,0,1-12.33-.67V86.12H57.64v6.33a6.2,6.2,0,0,1-.41,2.3,6.09,6.09,0,0,1-11.48,0,6.42,6.42,0,0,1-.42-2.3V86.12h-20v66.79a2.16,2.16,0,0,0,0,.36,2.65,2.65,0,0,0,2.48,2.59H76a2.7,2.7,0,0,0,2.48-2.59,2.16,2.16,0,0,0,0-.36Z"/><path class="cls-2" d="M121.58,113.74v8.8c0,6.64-4.33,10.86-11.37,10.86s-11.39-4.17-11.39-10.86v-8.8c0-6.83,4.35-11,11.39-11S121.58,106.91,121.58,113.74Zm-3.62,0c0-4.87-2.79-7.69-7.75-7.69s-7.8,2.82-7.8,7.69v8.8c0,4.7,2.86,7.53,7.8,7.53s7.75-2.83,7.75-7.53Z"/><path class="cls-2" d="M149.4,103.2a.42.42,0,0,1,.38.46v29a.42.42,0,0,1-.45.37h-2.92a.58.58,0,0,1-.58-.29l-11-17.36c-1.19-2-2.57-4.34-3.62-6.33h0c.13,3.27.24,7.56.24,10.86V132.6a.22.22,0,0,1,0,.08.43.43,0,0,1-.48.37h-2.55c-.33,0-.49-.16-.49-.45v-29c0-.29.16-.45.49-.45h2.93a.73.73,0,0,1,.58.34l11,18c1.12,1.9,2.44,4.11,3.49,6.08h.13c-.16-3.45-.25-7.78-.25-11.27V103.66a.11.11,0,0,1,0-.08.42.42,0,0,1,.45-.38Z"/><path class="cls-2" d="M187.08,104v4.75a.38.38,0,0,1,0,.15.62.62,0,0,1-.7.55h-7.62v22.83a.65.65,0,0,1-.71.74H172.8c-.45,0-.7-.24-.7-.74V109.41h-7.62c-.51,0-.76-.25-.76-.7V104a.61.61,0,0,1,0-.19.67.67,0,0,1,.76-.57h21.9C186.83,103.2,187.08,103.46,187.08,104Z"/><path class="cls-2" d="M212.16,133h-5.54a.83.83,0,0,1-.87-.62l-1.56-5.08H194.07l-1.57,5.08a.84.84,0,0,1-.84.62h-5.59c-.58,0-.74-.33-.58-.83l9.58-28.37a.85.85,0,0,1,.79-.58h6.34a.83.83,0,0,1,.78.58l9.66,28.37C212.88,132.65,212.64,133,212.16,133Zm-9.76-11.49c-1.16-3.66-2.46-8.2-3.3-11h-.16c-.83,2.79-2.12,7.37-3.24,11Z"/><path class="cls-2" d="M238.37,113.74c0,6.5-4.13,10.59-10.67,10.59h-5.08v7.91a.65.65,0,0,1-.71.74h-5.25c-.45,0-.7-.24-.7-.74V104c0-.5.25-.76.7-.76h11C234.24,103.2,238.37,107.24,238.37,113.74Zm-6.88,0c0-2.92-1.54-4.36-4.71-4.36h-4.16v8.74h4.16C230,118.12,231.49,116.65,231.49,113.74Z"/><rect class="cls-2" x="147.69" y="29.41" width="4.15" height="4.16"/><rect class="cls-2" x="156.07" y="29.41" width="44.73" height="4.16"/><rect class="cls-2" x="204.92" y="29.41" width="4.16" height="4.16"/><rect class="cls-2" x="216.33" y="29.41" width="153.26" height="4.16"/><path class="cls-3" d="M200.8,33.58V44.2H156.07V33.58h3v7h38.61v-7Zm0-33.65V44.2H156.07V-9.09h3V40.62h38.67V7.77a13.37,13.37,0,0,1-5.43,1.15A13.44,13.44,0,0,1,179.17-1.94H178A13.31,13.31,0,0,1,166.3-8.87V-9h4.45A9.54,9.54,0,0,0,178-5.63a9.5,9.5,0,0,0,4.6-1.19v2.17a9.77,9.77,0,0,0,9.66,9.86A9.6,9.6,0,0,0,200.8-.07Zm0,0V44.2H156.07V-9.09h3V40.62h38.67V7.77a13.37,13.37,0,0,1-5.43,1.15A13.44,13.44,0,0,1,179.17-1.94H178A13.31,13.31,0,0,1,166.3-8.87V-9h4.45A9.54,9.54,0,0,0,178-5.63a9.5,9.5,0,0,0,4.6-1.19v2.17a9.77,9.77,0,0,0,9.66,9.86A9.6,9.6,0,0,0,200.8-.07Zm0,0V44.2H156.07V-18.23h6.08v-.56a2.54,2.54,0,0,1,0-.39,2.09,2.09,0,0,1,2.27-1.88,2.1,2.1,0,0,1,1.88,2.27v.4h2.08v2.9a8.86,8.86,0,0,0,.27,2.29A9.93,9.93,0,0,0,170.75-9,9.54,9.54,0,0,0,178-5.63a9.5,9.5,0,0,0,4.6-1.19v2.17a9.77,9.77,0,0,0,9.66,9.86A9.6,9.6,0,0,0,200.8-.07Zm-3.06,7.84a13.37,13.37,0,0,1-5.43,1.15A13.44,13.44,0,0,1,179.17-1.94H178a13.31,13.31,0,0,1-11.74-7,1,1,0,0,1-.1-.17,13.87,13.87,0,0,1-1.43-4.16,9.1,9.1,0,0,1-.16-1.39h-5.54V40.62h38.61ZM200.8-.07V44.2H156.07V-18.23h6.08v-.56a2.54,2.54,0,0,1,0-.39,2.09,2.09,0,0,1,2.27-1.88,2.1,2.1,0,0,1,1.88,2.27v.4h2.08v2.9a8.86,8.86,0,0,0,.27,2.29A9.93,9.93,0,0,0,170.75-9,9.54,9.54,0,0,0,178-5.63a9.5,9.5,0,0,0,4.6-1.19v2.17a9.77,9.77,0,0,0,9.66,9.86A9.6,9.6,0,0,0,200.8-.07Zm-3.06,7.84a13.37,13.37,0,0,1-5.43,1.15A13.44,13.44,0,0,1,179.17-1.94H178a13.31,13.31,0,0,1-11.74-7,1,1,0,0,1-.1-.17,13.87,13.87,0,0,1-1.43-4.16,9.1,9.1,0,0,1-.16-1.39h-5.54V40.62h38.61ZM200.8-.07V44.2H156.07V-18.23h6.08v-.56a2.54,2.54,0,0,1,0-.39,2.09,2.09,0,0,1,2.27-1.88,2.1,2.1,0,0,1,1.88,2.27v.4h2.08v2.9a8.86,8.86,0,0,0,.27,2.29A9.93,9.93,0,0,0,170.75-9,9.54,9.54,0,0,0,178-5.63a9.5,9.5,0,0,0,4.6-1.19v2.17a9.77,9.77,0,0,0,9.66,9.86A9.6,9.6,0,0,0,200.8-.07Zm-3.06,7.84a13.37,13.37,0,0,1-5.43,1.15A13.44,13.44,0,0,1,179.17-1.94H178a13.31,13.31,0,0,1-11.74-7,1,1,0,0,1-.1-.17,13.87,13.87,0,0,1-1.43-4.16,9.1,9.1,0,0,1-.16-1.39h-5.54V40.62h38.61Zm-7.91-33.4v12.42h-3.75v-8.64h-1.94v3.62H180.4v-7.4Zm2.42,30.84A9.6,9.6,0,0,0,200.8-.07V44.2H156.07V-18.23h6.08v-.56a2.54,2.54,0,0,1,0-.39,2.09,2.09,0,0,1,2.27-1.88,2.1,2.1,0,0,1,1.88,2.27v.4h2.08v2.9a8.86,8.86,0,0,0,.27,2.29A9.93,9.93,0,0,0,170.75-9,9.54,9.54,0,0,0,178-5.63a9.5,9.5,0,0,0,4.6-1.19v2.1a9.77,9.77,0,0,0,9.66,9.86Zm5.49,2.56a13.37,13.37,0,0,1-5.43,1.15A13.44,13.44,0,0,1,179.17-1.94H178a13.31,13.31,0,0,1-11.74-7,1,1,0,0,1-.1-.17,13.87,13.87,0,0,1-1.43-4.16,9.1,9.1,0,0,1-.16-1.39h-5.54V40.55h38.61Zm-5.49-2.56A9.6,9.6,0,0,0,200.8-.07V44.2H156.07V-18.23h6.08v-.56a2.54,2.54,0,0,1,0-.39,2.09,2.09,0,0,1,2.27-1.88,2.1,2.1,0,0,1,1.88,2.27v.4h2.08v2.9a8.86,8.86,0,0,0,.27,2.29A9.93,9.93,0,0,0,170.75-9,9.54,9.54,0,0,0,178-5.63a9.5,9.5,0,0,0,4.6-1.19v2.1a9.77,9.77,0,0,0,9.66,9.86Zm5.49,2.56a13.37,13.37,0,0,1-5.43,1.15A13.44,13.44,0,0,1,179.17-1.94H178a13.31,13.31,0,0,1-11.74-7,1,1,0,0,1-.1-.17,13.87,13.87,0,0,1-1.43-4.16,9.1,9.1,0,0,1-.16-1.39h-5.54V40.55h38.61Zm-13.6-26H180.4v-7.4h9.43v12.38h-3.75v-8.63h-1.94ZM147.69,29.38V-9.1h-.94c-3.79,0-6.19,1.73-6.19,2.95V26.43c0,1.14,2.4,2.95,6.19,2.95ZM200.8-.07V44.2H156.07V-18.23h6.08v-.56a2.54,2.54,0,0,1,0-.39,2.09,2.09,0,0,1,2.27-1.88,2.1,2.1,0,0,1,1.88,2.27v.4h2.08v2.9a8.86,8.86,0,0,0,.27,2.29A9.93,9.93,0,0,0,170.75-9,9.54,9.54,0,0,0,178-5.63a9.5,9.5,0,0,0,4.6-1.19v2.17a9.77,9.77,0,0,0,9.66,9.86A9.6,9.6,0,0,0,200.8-.07Zm-3.06,7.84a13.37,13.37,0,0,1-5.43,1.15A13.44,13.44,0,0,1,179.17-1.94H178a13.31,13.31,0,0,1-11.74-7,1,1,0,0,1-.1-.17,13.87,13.87,0,0,1-1.43-4.16,9.1,9.1,0,0,1-.16-1.39h-5.54V40.62h38.61Zm-7.91-33.4v12.42h-3.75v-8.64h-1.94v3.62H180.4v-7.4Zm2.42,30.84A9.6,9.6,0,0,0,200.8-.07V44.2H156.07V-18.23h6.08v-.56a2.54,2.54,0,0,1,0-.39,2.09,2.09,0,0,1,2.27-1.88,2.1,2.1,0,0,1,1.88,2.27v.4h2.08v2.9a8.86,8.86,0,0,0,.27,2.29A9.93,9.93,0,0,0,170.75-9,9.54,9.54,0,0,0,178-5.63a9.5,9.5,0,0,0,4.6-1.19v2.1a9.77,9.77,0,0,0,9.66,9.86Zm5.49,2.56a13.37,13.37,0,0,1-5.43,1.15A13.44,13.44,0,0,1,179.17-1.94H178a13.31,13.31,0,0,1-11.74-7,1,1,0,0,1-.1-.17,13.87,13.87,0,0,1-1.43-4.16,9.1,9.1,0,0,1-.16-1.39h-5.54V40.55h38.61Zm-5.49-2.56A9.6,9.6,0,0,0,200.8-.07V44.2H156.07V-18.23h6.08v-.56a2.54,2.54,0,0,1,0-.39,2.09,2.09,0,0,1,2.27-1.88,2.1,2.1,0,0,1,1.88,2.27v.4h2.08v2.9a8.86,8.86,0,0,0,.27,2.29A9.93,9.93,0,0,0,170.75-9,9.54,9.54,0,0,0,178-5.63a9.5,9.5,0,0,0,4.6-1.19v2.1a9.77,9.77,0,0,0,9.66,9.86Zm5.49,2.56a13.37,13.37,0,0,1-5.43,1.15A13.44,13.44,0,0,1,179.17-1.94H178a13.31,13.31,0,0,1-11.74-7,1,1,0,0,1-.1-.17,13.87,13.87,0,0,1-1.43-4.16,9.1,9.1,0,0,1-.16-1.39h-5.54V40.55h38.61Zm-7.91-26v5h-3.75v-5Zm2.42,23.44A9.6,9.6,0,0,0,200.8-.07V44.2H156.07V-18.23h6.08v-.56a2.54,2.54,0,0,1,0-.39,2.09,2.09,0,0,1,2.27-1.88,2.1,2.1,0,0,1,1.88,2.27v.4h2.08v2.9a8.86,8.86,0,0,0,.27,2.29A9.93,9.93,0,0,0,170.75-9,9.54,9.54,0,0,0,178-5.63a9.5,9.5,0,0,0,4.6-1.19v2.26a9.77,9.77,0,0,0,9.66,9.86Zm5.49,2.56a13.37,13.37,0,0,1-5.43,1.15A13.44,13.44,0,0,1,179.17-1.94H178a13.31,13.31,0,0,1-11.74-7,1,1,0,0,1-.1-.17,13.87,13.87,0,0,1-1.43-4.16,9.1,9.1,0,0,1-.16-1.39h-5.54V40.71h38.61Zm-5.49-2.56A9.6,9.6,0,0,0,200.8-.07V44.2H156.07V-18.23h6.08v-.56a2.54,2.54,0,0,1,0-.39,2.09,2.09,0,0,1,2.27-1.88,2.1,2.1,0,0,1,1.88,2.27v.4h2.08v2.9a8.86,8.86,0,0,0,.27,2.29A9.93,9.93,0,0,0,170.75-9,9.54,9.54,0,0,0,178-5.63a9.5,9.5,0,0,0,4.6-1.19v2.26a9.77,9.77,0,0,0,9.66,9.86Zm5.49,2.56a13.37,13.37,0,0,1-5.43,1.15A13.44,13.44,0,0,1,179.17-1.94H178a13.31,13.31,0,0,1-11.74-7,1,1,0,0,1-.1-.17,13.87,13.87,0,0,1-1.43-4.16,9.1,9.1,0,0,1-.16-1.39h-5.54V40.71h38.61Zm-5.49-2.56A9.6,9.6,0,0,0,200.8-.07V44.2H156.07V-9.09h3V40.62h38.67V7.77a13.37,13.37,0,0,1-5.43,1.15A13.44,13.44,0,0,1,179.17-1.94H178A13.31,13.31,0,0,1,166.3-8.87V-9h4.45A9.54,9.54,0,0,0,178-5.63a9.5,9.5,0,0,0,4.6-1.19v2.26a9.77,9.77,0,0,0,9.66,9.86Zm0,0A9.6,9.6,0,0,0,200.8-.07V44.2H156.07V-9.09h3V40.62h38.67V7.77a13.37,13.37,0,0,1-5.43,1.15A13.44,13.44,0,0,1,179.17-1.94H178A13.31,13.31,0,0,1,166.3-8.87V-9h4.45A9.54,9.54,0,0,0,178-5.63a9.5,9.5,0,0,0,4.6-1.19v2.26a9.77,9.77,0,0,0,9.66,9.86Zm0,0A9.6,9.6,0,0,0,200.8-.07V44.2H156.07V33.58h3v7h38.67V7.77a13.37,13.37,0,0,1-5.43,1.15A13.44,13.44,0,0,1,179.17-1.94H178A13.31,13.31,0,0,1,166.3-8.87V-9h4.45A9.54,9.54,0,0,0,178-5.63a9.5,9.5,0,0,0,4.6-1.19v2.26a9.77,9.77,0,0,0,9.66,9.86Zm8.55,28.37V44.2H156.07V33.58h3v7.13h38.61v-7Zm8.29-61.06A13.56,13.56,0,0,1,209-26h0V44.87a5.34,5.34,0,0,1,0,.8,6.8,6.8,0,0,1-6.6,6.41H154.31a6.83,6.83,0,0,1-6.62-6.32,5.34,5.34,0,0,1,0-.8V33.56h-.94c-5.8,0-10.34-3.13-10.34-7.11V-6.14c0-4,4.54-7.11,10.34-7.24h.92V-26a4.51,4.51,0,0,1,0-.52,10.68,10.68,0,0,1,10.14-11,13.42,13.42,0,0,1,12.36-9,12.13,12.13,0,0,1,2.68.33,14.9,14.9,0,0,1,11.6-5.76,15.74,15.74,0,0,1,14.9,12.67,10.85,10.85,0,0,1,6.84,3.95,12.52,12.52,0,0,1,2.9,8.07Zm-57.26,1V-26H176v10.5a2.41,2.41,0,0,0,0,.38,2,2,0,0,0,2.19,1.81A2,2,0,0,0,180-15.55V-26h10.35v21.4a2.41,2.41,0,0,0,0,.38,2,2,0,0,0,2.19,1.81,2,2,0,0,0,1.81-2.19V-25.94H204.8a7.6,7.6,0,0,0,.12-1.43,7.47,7.47,0,0,0-7-7.85h-.23l-1.94.09L195.55-37a11.71,11.71,0,0,0-11.08-10.86,10.83,10.83,0,0,0-9.05,5.12l-.91,1.37L173-42a8.33,8.33,0,0,0-2.8-.49,9.38,9.38,0,0,0-8.83,7.63l-.46,2-1.95-.38a4.4,4.4,0,0,0-1-.09A6.5,6.5,0,0,0,151.83-26.5Zm53.09,4.62h-6.51V-4.65c0,.22,0,.44,0,.67a6.19,6.19,0,0,1-6.5,5.83,6.19,6.19,0,0,1-5.83-6.5V-21.88h-1.94v6.33a6.2,6.2,0,0,1-.41,2.3A6.09,6.09,0,0,1,180-9.53a6.07,6.07,0,0,1-7.75-3.72,6.42,6.42,0,0,1-.42-2.3v-6.33h-20V44.91a2.16,2.16,0,0,0,0,.36,2.65,2.65,0,0,0,2.48,2.59H202.5A2.7,2.7,0,0,0,205,45.27a2.16,2.16,0,0,0,0-.36Z"/><path class="cls-4" d="M194.24-18.23V-4.65a1.21,1.21,0,0,1,0,.38,2,2,0,0,1-2.19,1.81,2,2,0,0,1-1.81-2.19V-18.23h-4.16V-4.65c0,.22,0,.44,0,.67a6.17,6.17,0,0,0,6.5,5.83,6.19,6.19,0,0,0,5.83-6.5V-18.23Z"/><path class="cls-4" d="M192.25,5.21a9.77,9.77,0,0,1-9.66-9.86V-6.82a9.57,9.57,0,0,1-4.66,1.14,9.56,9.56,0,0,1-7.24-3.41,9.89,9.89,0,0,1-2.1-4.16,9.84,9.84,0,0,1-.27-2.3v-2.68H156.07V44.2H200.8V-.07A9.6,9.6,0,0,1,192.25,5.21Z"/><path class="cls-3" d="M166.3-18.79v.4h-4.15v-.4a2.08,2.08,0,0,1,2.08-2.08A2.09,2.09,0,0,1,166.3-18.79ZM209.09-26h0v7.66h-4.17v-3.49h-6.51V-4.65c0,.22,0,.44,0,.67a6.19,6.19,0,0,1-6.5,5.83,6.19,6.19,0,0,1-5.83-6.5V-21.88h-1.94v6.33a6.2,6.2,0,0,1-.41,2.3A6.09,6.09,0,0,1,180-9.53a6.07,6.07,0,0,1-7.75-3.72,6.42,6.42,0,0,1-.42-2.3v-6.33h-20v3.42h-4.16V-26a4.51,4.51,0,0,1,0-.52,10.68,10.68,0,0,1,10.14-11,13.42,13.42,0,0,1,12.36-9,12.13,12.13,0,0,1,2.68.33,14.9,14.9,0,0,1,11.6-5.76,15.74,15.74,0,0,1,14.9,12.67,10.9,10.9,0,0,1,6.84,3.86,12.52,12.52,0,0,1,2.9,8.07C209.11-27,209.11-26.52,209.09-26Zm-4.17-1.32a7.47,7.47,0,0,0-7-7.85h-.23l-1.94.09L195.55-37a11.71,11.71,0,0,0-11.08-10.86,10.83,10.83,0,0,0-9.05,5.12l-.91,1.37L173-42a8.33,8.33,0,0,0-2.8-.49,9.38,9.38,0,0,0-8.83,7.63l-.46,2-1.95-.38a4.4,4.4,0,0,0-1-.09,6.5,6.5,0,0,0-6.08,6.86V-26H176v10.5a2.41,2.41,0,0,0,0,.38,2,2,0,0,0,2.19,1.81A2,2,0,0,0,180-15.55V-26h10.35v21.4a2.41,2.41,0,0,0,0,.38,2,2,0,0,0,2.19,1.81,2,2,0,0,0,1.81-2.19V-26h10.48A6.48,6.48,0,0,0,204.92-27.37Z"/><path class="cls-2" d="M166.3-19.18A2.1,2.1,0,0,0,164-21.06a2.08,2.08,0,0,0-1.88,2.27V18.07a2.41,2.41,0,0,0,0,.38,2.08,2.08,0,0,0,4.15-.38V-18.79A2.54,2.54,0,0,0,166.3-19.18Z"/><path class="cls-2" d="M182.13,36.78V27.06a2.54,2.54,0,0,1,0-.39,2.08,2.08,0,0,1,4.15.39v9.72h0a2.08,2.08,0,1,1-4.15,0Z"/><path class="cls-2" d="M198.41-9.09v4.44c0,.22,0,.44,0,.67a6.19,6.19,0,0,1-6.5,5.83,6.19,6.19,0,0,1-5.83-6.5V-18.23h3.84v5h.41v8.6a2.41,2.41,0,0,0,0,.38,2,2,0,0,0,2.19,1.81,2,2,0,0,0,1.81-2.19V-9.09Zm-8.08-17v12.8h-.41v-5h-3.75v-3.62h-1.94v3.62h-4.16V-26Zm0,0v12.8h-.41v-5h-3.75v-3.62h-1.94v3.62h-4.16V-26Zm0,0v12.8h-.41v-5h-3.75v-3.62h-1.94v3.62h-4.16V-26Zm0,0v12.8h-.41v-5h-3.75v-3.62h-1.94v3.62h-4.16V-26Zm-.41.42v12.42h-3.75v-8.64h-1.94v3.62h-3.74v-7.4Zm0,0v12.42h-3.75v-8.64h-1.94v3.62h-3.74v-7.4Zm-42.23,55V-9.1h-.94c-3.79,0-6.19,1.73-6.19,2.95V26.43c0,1.14,2.4,2.95,6.19,2.95Zm42.14-55v12.42h-3.75v-8.64h-1.94v3.62H180.4v-7.4Zm0,7.4v5h-3.75v-5Zm.41-7.82v12.8h-.41v-5h-3.75v-3.62h-1.94v3.62H180V-26Zm0,0v12.8h-.41v-5h-3.75v-3.62h-1.94v3.62H180V-26Zm0,0v12.8h-.41v-5h-3.75v-3.62h-1.94v3.62H180V-26Zm0,0v12.8h-.41v-5h-3.75v-3.62h-1.94v3.62H180V-26Zm8.17,17v4.44c0,.22,0,.44,0,.67a6.19,6.19,0,0,1-6.5,5.83,6.19,6.19,0,0,1-5.83-6.5V-18.23h3.84v5h.41v8.6a2.41,2.41,0,0,0,0,.38,2,2,0,0,0,2.19,1.81,2,2,0,0,0,1.81-2.19V-9.09Zm10.68-18.39A13.56,13.56,0,0,1,209-26h0V44.87a5.34,5.34,0,0,1,0,.8,6.8,6.8,0,0,1-6.6,6.41H154.31a6.83,6.83,0,0,1-6.62-6.32,5.34,5.34,0,0,1,0-.8V33.56h-.94c-5.8,0-10.34-3.13-10.34-7.11V-6.14c0-4,4.54-7.11,10.34-7.24h.92V-26a4.51,4.51,0,0,1,0-.52,10.68,10.68,0,0,1,10.14-11,13.42,13.42,0,0,1,12.36-9,12.13,12.13,0,0,1,2.68.33,14.9,14.9,0,0,1,11.6-5.76,15.74,15.74,0,0,1,14.9,12.67,10.9,10.9,0,0,1,6.93,3.86,12.52,12.52,0,0,1,2.9,8.07Zm-57.26,1V-26H176v10.5a2.41,2.41,0,0,0,0,.38,2,2,0,0,0,2.19,1.81A2,2,0,0,0,180-15.55V-26h10.35v21.4a2.41,2.41,0,0,0,0,.38,2,2,0,0,0,2.19,1.81,2,2,0,0,0,1.81-2.19V-25.94H204.8a7.6,7.6,0,0,0,.12-1.43,7.47,7.47,0,0,0-7-7.85h-.23l-1.94.09L195.55-37a11.71,11.71,0,0,0-11.08-10.86,10.83,10.83,0,0,0-9.05,5.12l-.91,1.37L173-42a8.33,8.33,0,0,0-2.8-.49,9.38,9.38,0,0,0-8.83,7.63l-.46,2-1.95-.38a4.4,4.4,0,0,0-1-.09A6.5,6.5,0,0,0,151.83-26.5Zm53.09,4.62h-6.51V-4.65c0,.22,0,.44,0,.67a6.19,6.19,0,0,1-6.5,5.83,6.19,6.19,0,0,1-5.83-6.5V-21.88h-1.94v6.33a6.2,6.2,0,0,1-.41,2.3A6.09,6.09,0,0,1,180-9.53a6.07,6.07,0,0,1-7.75-3.72,6.42,6.42,0,0,1-.42-2.3v-6.33h-20V44.91a2.16,2.16,0,0,0,0,.36,2.65,2.65,0,0,0,2.48,2.59H202.5A2.7,2.7,0,0,0,205,45.27a2.16,2.16,0,0,0,0-.36Z"/><path class="cls-2" d="M248.08,5.74v8.8c0,6.64-4.33,10.86-11.37,10.86s-11.39-4.17-11.39-10.86V5.74c0-6.83,4.35-11,11.39-11S248.08-1.09,248.08,5.74Zm-3.62,0c0-4.87-2.79-7.69-7.75-7.69s-7.8,2.82-7.8,7.69v8.8c0,4.7,2.86,7.53,7.8,7.53s7.75-2.83,7.75-7.53Z"/><rect class="cls-2" x="-36.67" y="29.41" width="153.26" height="4.16"/><path class="cls-2" d="M22.9-4.8a.42.42,0,0,1,.38.46v29a.42.42,0,0,1-.45.37H19.91a.58.58,0,0,1-.58-.29L8.36,7.4C7.17,5.45,5.79,3.06,4.74,1.07h0C4.87,4.34,5,8.63,5,11.93V24.6a.22.22,0,0,1,0,.08.43.43,0,0,1-.48.37H1.94c-.33,0-.49-.16-.49-.45v-29c0-.29.16-.45.49-.45H4.87a.73.73,0,0,1,.58.34l11,18c1.12,1.9,2.44,4.11,3.49,6.08h.13c-.16-3.45-.25-7.78-.25-11.27V-4.34a.11.11,0,0,1,0-.08.42.42,0,0,1,.45-.38Z"/><path class="cls-2" d="M60.58-4V.71a.38.38,0,0,1,0,.15.62.62,0,0,1-.7.55H52.26V24.24a.65.65,0,0,1-.71.74H46.3c-.45,0-.7-.24-.7-.74V1.41H38c-.51,0-.76-.25-.76-.7V-4a.61.61,0,0,1,0-.19A.67.67,0,0,1,38-4.8h21.9C60.33-4.8,60.58-4.54,60.58-4Z"/><path class="cls-2" d="M85.66,25H80.12a.83.83,0,0,1-.87-.62l-1.56-5.08H67.57L66,24.36a.84.84,0,0,1-.84.62H59.57c-.58,0-.74-.33-.58-.83L68.57-4.22a.85.85,0,0,1,.79-.58H75.7a.83.83,0,0,1,.78.58l9.66,28.37C86.38,24.65,86.14,25,85.66,25ZM75.9,13.49c-1.16-3.66-2.46-8.2-3.3-11h-.16c-.83,2.79-2.12,7.37-3.24,11Z"/><path class="cls-2" d="M111.87,5.74c0,6.5-4.13,10.59-10.67,10.59H96.12v7.91a.65.65,0,0,1-.71.74H90.16c-.45,0-.7-.24-.7-.74V-4c0-.5.25-.76.7-.76h11C107.74-4.8,111.87-.76,111.87,5.74Zm-6.88,0c0-2.92-1.54-4.36-4.71-4.36H96.12v8.74h4.16C103.45,10.12,105,8.65,105,5.74Z"/></pattern></defs><title>logo grid</title><g class="cls-5"><g id="Layer_1" data-name="Layer 1"><rect class="cls-6" width="1920" height="1080"/></g></g></svg>